<svg width="15" height="14" viewBox="0 0 15 14" fill="none" xmlns="http://www.w3.org/2000/svg">
<path d="M13.7749 11.7296V2.09625C13.7749 1.23295 13.0754 0.533447 12.2121 0.533447H1.01575V13.2926H12.2121C13.0754 13.2926 13.7749 12.5928 13.7749 11.7296Z" fill="#FBCB8E"/>
<path d="M13.7749 11.7296V2.09625C13.7749 1.23295 13.0754 0.533447 12.2121 0.533447H1.01575V13.2926H12.2121C13.0754 13.2926 13.7749 12.5928 13.7749 11.7296Z" stroke="#2B2A29" stroke-width="0.4999" stroke-miterlimit="10" stroke-linecap="round" stroke-linejoin="round"/>
<path fill-rule="evenodd" clip-rule="evenodd" d="M1.17432 13.1287V0.748413H5.42742C9.16052 0.746113 8.48392 12.8956 12.658 13.1287H1.17432Z" fill="#9D9E9E"/>
<path d="M5.26873 0.533203H1.01562V13.2925H5.26873C5.26873 13.2925 6.28973 10.5222 6.28973 6.9129C6.28973 3.3036 5.26873 0.533203 5.26873 0.533203V0.533203Z" stroke="#2B2A29" stroke-width="0.4999" stroke-miterlimit="10" stroke-linecap="round" stroke-linejoin="round"/>
</svg>
