<svg xmlns="http://www.w3.org/2000/svg"><symbol fill="none" id="sprite-place-down" viewBox="0 0 45 45"><title>place-down</title><path clip-rule="evenodd" d="M1.035 1.028v37.66c0 2.997 2.452 5.448 5.449 5.448h32.554c2.997 0 5.449-2.451 5.449-5.448V1.028H1.035Z" stroke="#FEFEFE" stroke-width=".353" stroke-miterlimit="22.926"/><path fill-rule="evenodd" clip-rule="evenodd" d="M43.788 1.586H1.627V16.07c-.008 12.713 41.367 10.409 42.161 24.623V1.587Z" fill="#9D9E9E"/><path clip-rule="evenodd" d="M44.473 1.032H1.021v14.484c13.808 4.656 30.095 4.43 43.452 0V1.032Z" stroke="#FEFEFE" stroke-width=".353" stroke-miterlimit="22.926"/></symbol><symbol fill="none" id="sprite-place-left" viewBox="0 0 45 45"><title>place-left</title><path d="M.803 38.875V6.069A5.322 5.322 0 0 1 6.125.748h38.13v43.45H6.125a5.323 5.323 0 0 1-5.322-5.323Z" stroke="#FEFEFE" stroke-width=".35" stroke-miterlimit="10"/><path d="M29.774.747h14.484v43.45H29.774s-3.477-9.434-3.477-21.725c0-12.292 3.477-21.725 3.477-21.725Z" stroke="#FEFEFE" stroke-width=".35" stroke-miterlimit="10"/></symbol><symbol fill="none" id="sprite-place-right-res" viewBox="0 0 47 47"><title>place-right-res</title><path d="M13.775 11.73V2.096c0-.863-.7-1.563-1.563-1.563H1.016v12.76h11.196c.863 0 1.563-.7 1.563-1.563Z" fill="#FBCB8E"/><path d="M13.775 11.73V2.096c0-.863-.7-1.563-1.563-1.563H1.016v12.76h11.196c.863 0 1.563-.7 1.563-1.563Z" stroke="#2B2A29" stroke-width=".5" stroke-miterlimit="10" stroke-linecap="round" stroke-linejoin="round"/><path fill-rule="evenodd" clip-rule="evenodd" d="M1.174 13.129V.749h4.253c3.734-.003 3.057 12.147 7.231 12.38H1.174Z" fill="#9D9E9E"/><path d="M5.269.533H1.016v12.76h4.253s1.02-2.77 1.02-6.38S5.27.533 5.27.533v0Z" stroke="#2B2A29" stroke-width=".5" stroke-miterlimit="10" stroke-linecap="round" stroke-linejoin="round"/></symbol><symbol fill="none" id="sprite-place-right" viewBox="0 0 47 47"><title>place-right</title><path d="M46.121 40.84V6.469A5.576 5.576 0 0 0 40.545.893H.595v45.525h39.95a5.577 5.577 0 0 0 5.576-5.577Z" stroke="#FEFEFE" stroke-width=".35" stroke-miterlimit="10"/><path fill-rule="evenodd" clip-rule="evenodd" d="M.35 45.795V1.62h15.176c13.32-.009 10.906 43.342 25.8 44.174H.35Z" fill="#9D9E9E"/><path d="M15.77.892H.595v45.525H15.77s3.643-9.884 3.643-22.763C19.413 10.776 15.77.892 15.77.892Z" stroke="#FEFEFE" stroke-width=".35" stroke-miterlimit="10"/></symbol><symbol fill="none" id="sprite-place-top" viewBox="0 0 45 44"><title>place-top</title><path clip-rule="evenodd" d="M1.021 43.53V5.87C1.021 2.873 3.473.422 6.47.422h32.555c2.997 0 5.448 2.451 5.448 5.448v37.66H1.021Z" stroke="#FEFEFE" stroke-width=".353" stroke-miterlimit="22.926"/><path clip-rule="evenodd" d="M44.473 43.533H1.021V29.049c13.808-4.656 30.095-4.43 43.452 0v14.484Z" stroke="#FEFEFE" stroke-width=".353" stroke-miterlimit="22.926"/></symbol></svg>