<svg xmlns="http://www.w3.org/2000/svg"><symbol fill="none" id="sprite-place-down" viewBox="0 0 14 14"><title>place-down</title><path d="M11.615 12.945H1.98c-.863 0-1.562-.7-1.562-1.562V.186h12.758v11.197c0 .863-.7 1.562-1.562 1.562Z" stroke="#FEFEFE" stroke-width=".35" stroke-miterlimit="10"/><path fill-rule="evenodd" clip-rule="evenodd" d="M13.014.309H.634v4.253c-.002 3.733 12.147 3.056 12.38 7.23V.31Z" fill="#9D9E9E"/><path d="M.419 4.44V.185h12.758V4.44s-2.769 1.02-6.378 1.02c-3.61 0-6.38-1.02-6.38-1.02Z" stroke="#FEFEFE" stroke-width=".35" stroke-miterlimit="10"/></symbol><symbol fill="none" id="sprite-place-left" viewBox="0 0 14 14"><title>place-left</title><path d="M.584 11.73V2.098c0-.863.7-1.563 1.563-1.563h11.197v12.76H2.147c-.863 0-1.563-.7-1.563-1.564Z" stroke="#FEFEFE" stroke-width=".35" stroke-miterlimit="10"/><path d="M9.09.534h4.254v12.76H9.09s-1.021-2.77-1.021-6.38S9.09.534 9.09.534Z" stroke="#FEFEFE" stroke-width=".35" stroke-miterlimit="10"/></symbol><symbol fill="none" id="sprite-place-right-res" viewBox="0 0 15 14"><title>place-right-res</title><path d="M13.775 11.73V2.096c0-.863-.7-1.563-1.563-1.563H1.016v12.76h11.196c.863 0 1.563-.7 1.563-1.563Z" fill="#FBCB8E"/><path d="M13.775 11.73V2.096c0-.863-.7-1.563-1.563-1.563H1.016v12.76h11.196c.863 0 1.563-.7 1.563-1.563Z" stroke="#2B2A29" stroke-width=".5" stroke-miterlimit="10" stroke-linecap="round" stroke-linejoin="round"/><path fill-rule="evenodd" clip-rule="evenodd" d="M1.174 13.129V.749h4.253c3.734-.003 3.057 12.147 7.231 12.38H1.174Z" fill="#9D9E9E"/><path d="M5.269.533H1.016v12.76h4.253s1.02-2.77 1.02-6.38S5.27.533 5.27.533v0Z" stroke="#2B2A29" stroke-width=".5" stroke-miterlimit="10" stroke-linecap="round" stroke-linejoin="round"/></symbol><symbol fill="none" id="sprite-place-right" viewBox="0 0 47 47"><title>place-right</title><path d="M46.121 40.84V6.469A5.576 5.576 0 0 0 40.545.893H.595v45.525h39.95a5.577 5.577 0 0 0 5.576-5.577Z" stroke="#FEFEFE" stroke-width=".35" stroke-miterlimit="10"/><path fill-rule="evenodd" clip-rule="evenodd" d="M.35 45.795V1.62h15.176c13.32-.009 10.906 43.342 25.8 44.174H.35Z" fill="#9D9E9E"/><path d="M15.77.892H.595v45.525H15.77s3.643-9.884 3.643-22.763C19.413 10.776 15.77.892 15.77.892Z" stroke="#FEFEFE" stroke-width=".35" stroke-miterlimit="10"/></symbol></svg>